PathFileType	4	(X/Y/Z)	C:\Users\Biomechanik\SynologyDrive\AlexP\Athlete_03\Athlete_3_25_03_31\Squat_bar_03\marker_experimental.trc
DataRate	CameraRate	NumFrames	NumMarkers	Units	OrigDataRate	OrigDataStartFrame	OrigNumFrames
200.000000	200.000000	4	55	mm	200.000000	434	497
Frame#	Time	BL			BR			GLAB			RFHD			LFHD			C7			T6			SPINMOL			SPINM2			SPINM3			T12			BELTOL			BELT2			BELT3			SACROL			SACR2			SACR3			LTHOL			LTH2			LTH3			LSHAOL			LSHA2			LSHA3			LHEE			LTOE			LM5			RTHOL			RTH2			RTH3			RSHAOL			RSHA2			RSHA3			RHEE			RTOE			RM5			STRN			XIPH			LACR			LUAOL			LUA2			LUA3			LLAOL			LLA2			LLA3			LWRR			LWRU			RACR			RUAOL			RUA2			RUA3			RLAOL			RLA2			RLA3			RWRR			RWRU			
		X1	Y1	Z1	X2	Y2	Z2	X3	Y3	Z3	X4	Y4	Z4	X5	Y5	Z5	X6	Y6	Z6	X7	Y7	Z7	X8	Y8	Z8	X9	Y9	Z9	X10	Y10	Z10	X11	Y11	Z11	X12	Y12	Z12	X13	Y13	Z13	X14	Y14	Z14	X15	Y15	Z15	X16	Y16	Z16	X17	Y17	Z17	X18	Y18	Z18	X19	Y19	Z19	X20	Y20	Z20	X21	Y21	Z21	X22	Y22	Z22	X23	Y23	Z23	X24	Y24	Z24	X25	Y25	Z25	X26	Y26	Z26	X27	Y27	Z27	X28	Y28	Z28	X29	Y29	Z29	X30	Y30	Z30	X31	Y31	Z31	X32	Y32	Z32	X33	Y33	Z33	X34	Y34	Z34	X35	Y35	Z35	X36	Y36	Z36	X37	Y37	Z37	X38	Y38	Z38	X39	Y39	Z39	X40	Y40	Z40	X41	Y41	Z41	X42	Y42	Z42	X43	Y43	Z43	X44	Y44	Z44	X45	Y45	Z45	X46	Y46	Z46	X47	Y47	Z47	X48	Y48	Z48	X49	Y49	Z49	X50	Y50	Z50	X51	Y51	Z51	X52	Y52	Z52	X53	Y53	Z53	X54	Y54	Z54	X55	Y55	Z55	

435	2.17	219.528564453125	1332.819580078125	-2231.941650390625	201.9593658447266	1395.454833984375	-212.0108947753905	478.0076599121094	1567.5849609375	-1179.811401367188	422.6073913574219	1587.949584960938	-1118.534790039062	435.7129211425781	1587.608520507812	-1254.420776367188	249.0782318115234	1429.83154296875	-1193.921875	150.5472259521484	1278.614379882812	-1202.010864257812	133.5511169433594	1246.458740234375	-1222.547607421875	124.4458084106445	1238.34033203125	-1173.578979492188	115.0931625366211	1184.166259765625	-1209.98779296875	105.0159072875977	1120.400390625	-1211.970581054688	75.94484710693359	1097.742919921875	-1229.9912109375	74.13144683837891	1094.195190429688	-1179.713256835938	54.06371688842773	1038.4677734375	-1210.018310546875	30.00826454162598	953.5484619140626	-1236.463134765625	27.25188064575195	950.8518676757814	-1184.712036132812	16.57160186767578	892.2053222656251	-1214.097534179688	118.5478897094727	676.4717407226564	-1426.059448242188	91.45268249511719	607.7893066406251	-1396.873413085938	130.2399749755859	615.4391479492189	-1427.591796875	132.1394653320312	332.1179199218751	-1505.434814453125	95.90312957763672	262.867645263672	-1490.234619140625	140.1126251220703	270.9537353515626	-1513.58349609375	111.8563079833984	69.26293945312509	-1465.028686523438	315.1141052246094	50.62345504760751	-1540.4912109375	238.0933074951172	26.3159008026124	-1619.881591796875	85.54606628417969	683.2139892578126	-1004.298461914062	136.0038146972656	643.7698364257814	-956.27880859375	103.231330871582	625.9744873046876	-989.390625	90.83070373535156	347.9776611328126	-917.565185546875	122.2092132568359	282.5659179687501	-887.4368896484375	84.62669372558594	285.8559875488282	-919.562744140625	88.51310729980469	63.15566253662115	-965.146728515625	279.6933288574219	47.69963836669927	-869.052001953125	190.6463928222656	37.61920928955083	-798.3676147460938	391.1861267089844	1290.073852539062	-1196.180786132812	377.5317993164062	1145.147583007812	-1191.366821289062	302.3981018066406	1379.51220703125	-1366.204223632812	192.4554595947266	1263.140869140625	-1454.763671875	143.7497863769531	1219.90087890625	-1443.788818359375	173.8499450683594	1206.899169921875	-1482.91015625	149.7671966552734	1137.550659179688	-1552.5048828125	222.0692138671875	1133.71728515625	-1585.431640625	192.6107788085938	1174.025512695312	-1577.260375976562	248.3001098632812	1253.861328125	-1616.3837890625	259.8305358886719	1282.361206054688	-1543.23486328125	310.2950744628906	1381.952880859375	-1029.269165039062	201.2115173339844	1268.51416015625	-948.3449096679686	174.5229187011719	1215.634765625	-918.9417114257811	154.6355438232422	1225.696166992188	-965.9407958984374	169.5681304931641	1147.204833984375	-833.7803955078124	170.0657043457031	1226.379150390625	-823.6200561523436	206.568359375	1192.262451171875	-812.2301025390624	238.1980895996094	1279.077758789062	-793.0222167968749	262.7774963378906	1309.51513671875	-863.1881713867186	
436	2.175	219.3634033203125	1332.554565429688	-2232.015625	201.6239166259766	1395.659790039062	-212.0969238281249	477.6385803222656	1567.896362304688	-1179.829223632812	422.2088623046875	1588.22607421875	-1118.556762695312	435.318359375	1587.842163085938	-1254.44287109375	248.8832702636719	1429.894409179688	-1193.88134765625	150.3209075927734	1278.71044921875	-1201.969970703125	133.3288421630859	1246.538330078125	-1222.5048828125	124.2076797485352	1238.381713867188	-1173.5185546875	114.9413070678711	1184.208374023438	-1209.991455078125	105.0154266357422	1120.303955078125	-1212.002197265625	76.04357147216797	1097.49462890625	-1230.001831054688	74.21751403808594	1093.9208984375	-1179.718627929688	54.3259391784668	1038.137451171875	-1210.063598632812	30.49851989746094	953.2272338867189	-1236.617309570312	27.71439933776855	950.5089721679689	-1184.865844726562	17.21261215209961	891.8426513671876	-1214.27294921875	118.8594131469727	676.5690307617189	-1425.925659179688	91.64097595214844	607.9828491210939	-1396.6025390625	130.3840637207031	615.5138549804689	-1427.394165039062	132.0378723144531	332.094940185547	-1505.285034179688	95.8172607421875	262.8189086914064	-1490.190551757812	140.0460052490234	270.9433593750001	-1513.4765625	111.8577499389648	69.25663757324227	-1465.057006835938	315.1231689453125	50.62333297729501	-1540.510375976562	238.0872497558594	26.29844284057627	-1619.8955078125	85.67892456054688	683.3236083984376	-1004.717590332031	135.9968109130859	643.7215576171876	-956.685791015625	103.1825714111328	626.0469360351564	-989.8469848632812	90.53972625732422	347.9311523437501	-917.9854736328125	121.9021606445312	282.5896301269532	-887.6892700195312	84.38436889648438	285.8017883300782	-919.8997192382812	88.52989196777344	63.14056396484381	-965.1453857421875	279.6914978027344	47.70085906982427	-869.0142822265625	190.633056640625	37.60289764404302	-798.3425903320312	391.119384765625	1290.141479492188	-1196.13134765625	377.419189453125	1145.297485351562	-1191.295288085938	302.2566223144531	1379.619995117188	-1366.1796875	192.3601226806641	1263.242431640625	-1454.641479492188	143.5660247802734	1220.07763671875	-1443.66845703125	173.6361999511719	1207.017822265625	-1482.783325195312	149.5057830810547	1137.623657226562	-1552.324462890625	221.7994232177734	1133.740966796875	-1585.253662109375	192.3544311523438	1174.063842773438	-1577.124145507812	248.0616760253906	1253.834716796875	-1616.33935546875	259.5919189453125	1282.420043945312	-1543.22998046875	310.1100463867188	1382.083374023438	-1029.222778320312	201.0249633789062	1268.671264648438	-948.3878173828124	174.2396392822266	1215.83544921875	-918.9959106445311	154.4203186035156	1225.902587890625	-966.0182495117186	169.2653045654297	1147.36083984375	-833.8489990234374	169.7731628417969	1226.526977539062	-823.6828613281249	206.2842864990234	1192.406860351562	-812.3084106445311	237.9354553222656	1279.225830078125	-793.1060180664061	262.4918212890625	1309.658813476562	-863.2690429687499	
437	2.18	219.2045135498047	1332.255126953125	-2232.091552734375	201.2906188964844	1395.837646484375	-212.1858520507812	477.2828674316406	1568.190551757812	-1179.851196289062	421.8272094726562	1588.483032226562	-1118.580444335938	434.9305114746094	1588.056518554688	-1254.462036132812	248.7038269042969	1429.93359375	-1193.840576171875	150.1120758056641	1278.792602539062	-1201.93115234375	133.13037109375	1246.60986328125	-1222.466552734375	123.9881057739258	1238.415649414062	-1173.463012695312	114.8090362548828	1184.244995117188	-1210.000366210938	105.0228576660156	1120.204345703125	-1212.03759765625	76.14671325683594	1097.248657226562	-1230.017211914062	74.30419158935547	1093.64794921875	-1179.734252929688	54.58754348754883	1037.810424804688	-1210.113525390625	30.98021697998047	952.9166259765626	-1236.778442382812	28.16613578796387	950.1756591796876	-1185.026489257812	17.84245491027832	891.4901123046876	-1214.45458984375	119.162109375	676.6660766601564	-1425.795776367188	91.82638549804688	608.1689453125001	-1396.343383789062	130.5256042480469	615.5888671875001	-1427.20458984375	131.9518127441406	332.0718383789064	-1505.140747070312	95.74234008789062	262.7752685546876	-1490.146728515625	139.9886474609375	270.9344177246095	-1513.37451171875	111.8603363037109	69.25213623046884	-1465.082397460938	315.1324157714844	50.62263870239267	-1540.52783203125	238.0816802978516	26.28208923339854	-1619.908081054688	85.81552886962891	683.4241943359376	-1005.122436523438	135.9974060058594	643.6741333007814	-957.076904296875	103.1495056152344	626.1109008789064	-990.2882080078125	90.26847076416016	347.8884277343751	-918.3927612304688	121.6077041625977	282.6131286621094	-887.9285888671875	84.15805816650391	285.7517700195313	-920.2276611328125	88.54789733886719	63.12639617919928	-965.1454467773438	279.6889953613281	47.70237731933599	-868.978759765625	190.6197204589844	37.58654022216802	-798.3180541992188	391.063720703125	1290.18603515625	-1196.080932617188	377.3201599121094	1145.4228515625	-1191.223022460938	302.1230773925781	1379.70361328125	-1366.15576171875	192.2568054199219	1263.325073242188	-1454.52587890625	143.3831634521484	1220.232788085938	-1443.546997070312	173.4285736083984	1207.113647460938	-1482.65234375	149.2416839599609	1137.668701171875	-1552.13818359375	221.5244903564453	1133.73095703125	-1585.07080078125	192.0959930419922	1174.070434570312	-1576.984741210938	247.8279876708984	1253.771118164062	-1616.295288085938	259.360107421875	1282.444580078125	-1543.228149414062	309.9296875	1382.189086914062	-1029.180541992188	200.8381195068359	1268.80615234375	-948.4281005859374	173.9556732177734	1216.010986328125	-919.0523071289061	154.2038421630859	1226.091918945312	-966.0963134765624	168.948486328125	1147.489501953125	-833.9290161132811	169.4748077392578	1226.648681640625	-823.7531738281249	205.9905548095703	1192.519409179688	-812.3941650390624	237.6692352294922	1279.338256835938	-793.1907958984374	262.2110290527344	1309.766845703125	-863.3485107421874	
438	2.185	219.0519104003906	1331.927612304688	-2232.168701171875	200.9597625732422	1395.994140625	-212.2773895263671	476.9410095214844	1568.4697265625	-1179.876342773438	421.4629821777344	1588.723266601562	-1118.605102539062	434.5501708984375	1588.254638671875	-1254.476928710938	248.5384216308594	1429.953857421875	-1193.800048828125	149.9202423095703	1278.864624023438	-1201.894897460938	132.9545135498047	1246.676025390625	-1222.432861328125	123.7863159179688	1238.445068359375	-1173.414184570312	114.6954574584961	1184.2783203125	-1210.014892578125	105.0379943847656	1120.104125976562	-1212.0771484375	76.25410461425781	1097.007080078125	-1230.038330078125	74.3916015625	1093.37939453125	-1179.761352539062	54.84909820556641	1037.48974609375	-1210.16845703125	31.45437622070312	952.6198730468751	-1236.943969726562	28.60636329650879	949.8561401367189	-1185.19091796875	18.46096611022949	891.1513671875001	-1214.639770507812	119.4551391601562	676.7633666992189	-1425.668090820312	92.00534820556641	608.3500366210939	-1396.093872070312	130.6622009277344	615.6649780273439	-1427.020385742188	131.8766326904297	332.0477905273439	-1504.996459960938	95.67424011230469	262.7354431152345	-1490.097290039062	139.9362030029297	270.9262695312501	-1513.273193359375	111.864013671875	69.24920654296884	-1465.104370117188	315.1416320800781	50.6213150024415	-1540.54345703125	238.0765533447266	26.26711082458506	-1619.91943359375	85.95444488525391	683.5176391601564	-1005.514221191406	136.0036468505859	643.6281738281251	-957.4544067382812	103.1302032470703	626.1669921875001	-990.7166748046875	90.01578521728516	347.8486938476563	-918.7882080078125	121.328254699707	282.6360473632813	-888.1590576171875	83.94691467285156	285.7051391601563	-920.54736328125	88.56688690185547	63.11338424682623	-965.1473999023438	279.68603515625	47.7039184570313	-868.9459838867188	190.6066589355469	37.57052993774419	-798.2943725585938	391.018310546875	1290.214477539062	-1196.029907226562	377.2359008789062	1145.528442382812	-1191.15087890625	301.9967041015625	1379.768920898438	-1366.132446289062	192.1474304199219	1263.392944335938	-1454.4169921875	143.2028198242188	1220.36962890625	-1443.424926757812	173.2293395996094	1207.190795898438	-1482.517578125	148.9777526855469	1137.690307617188	-1551.947509765625	221.2480316162109	1133.692626953125	-1584.884155273438	191.8383026123047	1174.050415039062	-1576.843139648438	247.6005859375	1253.676879882812	-1616.252075195312	259.1356506347656	1282.441040039062	-1543.22900390625	309.753173828125	1382.274780273438	-1029.1435546875	200.6520385742188	1268.922607421875	-948.4661865234374	173.6721801757812	1216.165405273438	-919.1101074218749	153.9871520996094	1226.266967773438	-966.1749267578124	168.6199340820312	1147.595703125	-834.0192260742186	169.1724090576172	1226.748657226562	-823.8303222656249	205.6889038085938	1192.605590820312	-812.4863281249999	237.4002227783203	1279.420532226562	-793.2758789062499	261.9360656738281	1309.844848632812	-863.4264526367186	
